<svg id="a0b12aed-fa45-426f-98fe-58ecefca417f" data-name="Layer 1" xmlns="http://www.w3.org/2000/svg" viewBox="0 0 792 612"><defs><style>.a0a138d4-0e52-4ec8-87ff-4a74002b3561{fill:#fdd023;}.e9d75ea1-4dec-46da-8bac-58c3a65b7c5a{fill:#fff;}.b696cc08-fa1b-42c8-b979-50f97617d02b{fill:#472c7a;}.a70d920e-734a-4376-840a-0d2825e8c619{fill:#cccccb;}</style></defs><title>tigersden2</title><path class="a0a138d4-0e52-4ec8-87ff-4a74002b3561" d="M455.62,381.62s36-28,16.94-56.7c0,0-8.39-15.3-22.4-21.59a8.47,8.47,0,0,1-4.54-4.84c-2.77-7.7-8.7-26.17-7.63-40.31,0,0-17.64-6.57-24.55-42.88,0,0-20.4-13.48-29.74-26.62S308,109.15,287.57,101.54c0,0,67.43,62.94,90.94,115.84,0,0,6.23,10.37,1.73,18.67,0,0,21.79,16.25,18.67,56.71,0,0,20.21,30.12,20.21,47.06l19.56,35.23c3.16-9.34,7.36-7,8-26C446.72,349.09,462.19,359.15,455.62,381.62Z"/><path class="a0a138d4-0e52-4ec8-87ff-4a74002b3561" d="M416,411.9s17.42-6.53,17.69-38.65c0,0,.28-21.51-21-43.83,0,0-5.17-5.45-9.25-18.24,0,0-2.52,1-6.77-.15a8.46,8.46,0,0,1-5.37-4.67c-3-6.51-9.43-21.24-8.46-27.31,0,0-21.6-16.33-30-53.63a168.1,168.1,0,0,1-26.16-22.86c-12.5-13.61-35.91-55.81-85.45-86.85,0,0,65.6,74.05,79.76,108.35,0,0,8.93,20.69,5.69,25.05,0,0,19.08,14.7,15.54,47.64,0,0,9.26-.55,16.34,44.65,0,0,1.9,22.05,26.13,24.77S417.32,406.73,416,411.9Z"/><path class="a0a138d4-0e52-4ec8-87ff-4a74002b3561" d="M363.83,410.31s33-25.67,15.53-52c0,0-8.87-16.16-23.45-20.91,0,0-9.51-23.46-8.24-40.25,0,0-16.17-6-22.5-39.3,0,0-18.7-12.36-27.26-24.4s-73.81-87.1-98-96c0,0,71.69,73.77,93.24,122.26,0,0,4.37,8.86.25,16.46,0,0,21.3,15.55,18.45,52.63,0,0,18.38,24.08,18.38,39.61l18.06,35.82c2.9-8.57,6.75-6.38,7.38-23.8C355.68,380.49,369.85,389.71,363.83,410.31Z"/><path class="a0a138d4-0e52-4ec8-87ff-4a74002b3561" d="M327.48,438.06s16-6,16.22-35.43c0,0,.25-19.71-19.22-40.17,0,0-4.74-5-8.48-16.72,0,0-2.81,1.12-7.45-.52a5.86,5.86,0,0,1-3.27-3c-2.55-5.41-9.09-20.05-8.15-25.89,0,0-19.8-15-27.54-49.16a154.35,154.35,0,0,1-24-20.95c-11.45-12.48-32.91-51.15-78.32-79.6,0,0,60.13,67.87,73.11,99.31,0,0,8.18,19,5.21,23,0,0,17.49,13.48,14.25,43.67,0,0,8.48-.5,15,40.92,0,0,1.75,20.21,24,22.7S328.73,433.32,327.48,438.06Z"/><path class="e9d75ea1-4dec-46da-8bac-58c3a65b7c5a" d="M340.36,330.61s-8.59,16.43,1.8,30.94a14.83,14.83,0,0,0,7.42,5.36c7.48,2.5,23.5,10.37,18.85,31,0,0,16.57-18.51,2.91-38.42a19.65,19.65,0,0,0-4.26-4.47,82.37,82.37,0,0,0-10.58-7.19C343.66,341.43,340.36,330.61,340.36,330.61Z"/><path class="b696cc08-fa1b-42c8-b979-50f97617d02b" d="M338.36,326.73s2.89-28.23-18.37-33.16a80.33,80.33,0,0,1,.06,28c-2,10.56,8,22.49,12.72,29.42C332.77,351,329.14,339.48,338.36,326.73Z"/><path class="e9d75ea1-4dec-46da-8bac-58c3a65b7c5a" d="M430.23,293.36s-9.93,18.25,2.07,34.37a17.21,17.21,0,0,0,8.59,5.95c8.63,2.77,27.15,11.51,21.77,34.47,0,0,19.16-20.56,3.37-42.66a22.26,22.26,0,0,0-4.92-5,118.9,118.9,0,0,0-13.79-8.78C432.48,304.59,430.23,293.36,430.23,293.36Z"/><path class="b696cc08-fa1b-42c8-b979-50f97617d02b" d="M429.5,291.25s-9.13-26.59-24.68-32.28c0,0,3.65,7.78,6.35,31,1.24,10.6,10.12,28,16.07,35.19C427.24,325.16,417.37,300.36,429.5,291.25Z"/><path class="e9d75ea1-4dec-46da-8bac-58c3a65b7c5a" d="M391.13,322l21.7,22.41s18.57,15.07,13.54,39.46c0,0-2.27,11.13-5.09,15.92,0,0,.85-21.42-16.34-32.69,0,0-5.78-5.08-10-5.08a41.91,41.91,0,0,1-12.78-4.79,21.08,21.08,0,0,1-8.94-25.66,14.06,14.06,0,0,1,.87-1.82C375.87,326.74,381.12,322.16,391.13,322Z"/><path class="b696cc08-fa1b-42c8-b979-50f97617d02b" d="M389.93,318.9l-11.06-18.44s-8.69-16.06-21.75-19a39.78,39.78,0,0,1,5.54,23.39s-1.37,24.92,7,39.2c0,0-3.43-13.78,2.59-19.26C377.05,320.37,379.22,321.29,389.93,318.9Z"/><path class="e9d75ea1-4dec-46da-8bac-58c3a65b7c5a" d="M310,357.21,327.19,375s14.72,12,10.73,31.27c0,0-1.8,8.83-4,12.62,0,0,.67-17-13-25.91,0,0-4.57-4-7.92-4a33.21,33.21,0,0,1-10.14-3.79,16.72,16.72,0,0,1-7.08-20.34,9.21,9.21,0,0,1,.69-1.44C297.9,361,302.06,357.32,310,357.21Z"/><path class="b696cc08-fa1b-42c8-b979-50f97617d02b" d="M308.75,355.58,300,343.72S293.15,331,282.8,328.65a31.6,31.6,0,0,1,4.39,18.54s.45,25.49,5,30.51c0,0-1.92-10.53,2.47-15.16C298.63,358.38,300.26,357.48,308.75,355.58Z"/><path class="a0a138d4-0e52-4ec8-87ff-4a74002b3561" d="M434.83,286.3s-10.26-2.34-14.46,1.91c0,0,8.93-14.71,14.2-13.46S434.83,286.3,434.83,286.3Z"/><path class="a0a138d4-0e52-4ec8-87ff-4a74002b3561" d="M387.77,311.27s-10.42-1.45-14.24,3.13c0,0,7.64-15.42,13-14.62S387.77,311.27,387.77,311.27Z"/><path class="a0a138d4-0e52-4ec8-87ff-4a74002b3561" d="M360.18,307.43s3.12-8.33,8.87-9.31c0,0-17.13-.56-18.69,3.75S360.18,307.43,360.18,307.43Z"/><path class="a0a138d4-0e52-4ec8-87ff-4a74002b3561" d="M345,320.47s-9.92-3.5-14.58.23c0,0,10.57-13.58,15.66-11.73S345,320.47,345,320.47Z"/><path class="a0a138d4-0e52-4ec8-87ff-4a74002b3561" d="M409.41,289.63s2.47-8.53,7.88-9.92c0,0-16.31.67-17.54,5.07S409.41,289.63,409.41,289.63Z"/><path class="a0a138d4-0e52-4ec8-87ff-4a74002b3561" d="M283.35,350s3.11-8.33,8.86-9.31c0,0-17.13-.56-18.68,3.75S283.35,350,283.35,350Z"/><path class="a0a138d4-0e52-4ec8-87ff-4a74002b3561" d="M320.05,321.53s.87-5.75,4.24-7.11c0,0-10.47,1.83-10.88,4.79S320.05,321.53,320.05,321.53Z"/><path class="a0a138d4-0e52-4ec8-87ff-4a74002b3561" d="M310.11,352.88s-10.05-2.73-13-1.34c0,0,4.94-5.71,10.11-4.28S310.11,352.88,310.11,352.88Z"/><path class="a70d920e-734a-4376-840a-0d2825e8c619" d="M468.53,349.28s2.17-11.51-2.3-18.2-7.51-5.66-9.72-9.54c0,0-1,6.34,3.19,8.77S468.23,342.63,468.53,349.28Z"/><path class="a70d920e-734a-4376-840a-0d2825e8c619" d="M373.62,379.26s1.65-8.71-1.74-13.77-5.68-4.29-7.36-7.23c0,0-.71,4.11,2.42,6.65C369.78,367.2,373.4,374.23,373.62,379.26Z"/><path class="a70d920e-734a-4376-840a-0d2825e8c619" d="M410.15,348.3s8.74,7.08,11.35,13.54c2.4,5.92,2.67,8.59,2.67,20.18A91.62,91.62,0,0,0,418,362.59,137.38,137.38,0,0,0,410.15,348.3Z"/><path class="a70d920e-734a-4376-840a-0d2825e8c619" d="M331.55,387.21s4.42,5.4,5.13,9.5c.65,3.76.44,5.33-1.19,12a51,51,0,0,0-1.07-12.08A79,79,0,0,0,331.55,387.21Z"/></svg>